<svg version="1.1" viewBox="0.0 0.0 488.6719160104987 488.6719160104987" fill="none" stroke="none" stroke-linecap="square" stroke-miterlimit="10" xmlns:xlink="http://www.w3.org/1999/xlink" xmlns="http://www.w3.org/2000/svg"><clipPath id="p.0"><path d="m0 0l488.6719 0l0 488.6719l-488.6719 0l0 -488.6719z" clip-rule="nonzero"/></clipPath><g clip-path="url(#p.0)"><path fill="#000000" fill-opacity="0.0" d="m0 0l488.6719 0l0 488.6719l-488.6719 0z" fill-rule="evenodd"/><path fill="#d5d4ee" d="m0 244.3622l0 0c0 -134.95752 109.404686 -244.3622 244.3622 -244.3622l0 0c64.80888 0 126.96336 25.74523 172.79018 71.57203c45.826813 45.826805 71.57202 107.981285 71.57202 172.79016l0 0c0 134.95753 -109.40466 244.3622 -244.3622 244.3622l0 0c-134.95752 0 -244.3622 -109.40466 -244.3622 -244.3622zm70.56203 0l0 0c0 95.9872 77.81299 173.80019 173.80017 173.80019c95.9872 0 173.80019 -77.81299 173.80019 -173.80019l0 0c0 -95.98718 -77.81299 -173.80017 -173.80019 -173.80017l0 0c-95.98718 0 -173.80017 77.81299 -173.80017 173.80017z" fill-rule="evenodd"/></g></svg>